<svg xmlns="http://www.w3.org/2000/svg" width="207" height="79">
    <path fill-rule="evenodd" d="M206.347 45.693c-.187.315-.405.665-.655 1.051-.25.387-.499.748-.743 1.085-.246.337-.393.54-.441.61a93.892 93.892 0 0 1-3.118 3.69 27.204 27.204 0 0 1-3.661 3.402A19.966 19.966 0 0 1 195.654 57a6.165 6.165 0 0 1-2.4.864c-.751.079-1.47-.1-2.159-.536-.688-.435-1.078-1.074-1.169-1.916-.195-1.663-.022-3.209.482-4.652-.026.029-.05.062-.077.092-.296.325-.584.65-.864.974a76.323 76.323 0 0 0-1.997 2.246c-.661.774-1.32 1.555-1.977 2.343-.177.215-.366.48-.567.796a7.138 7.138 0 0 1-.532.743 3.91 3.91 0 0 1-.898.928c-.357.266-.778.245-1.262-.064a1.242 1.242 0 0 1-.43-.422 23.124 23.124 0 0 1-.31-.532 4.796 4.796 0 0 1-.277-1.469 13.538 13.538 0 0 1 .04-1.552 9.97 9.97 0 0 1 .238-1.522c.115-.487.237-.95.364-1.389.239-.941.609-1.979 1.11-3.111a58.67 58.67 0 0 1 1.387-2.945 31.417 31.417 0 0 0-2.679 2.637 95.65 95.65 0 0 0-2.522 2.916c-.128.144-.421.518-.879 1.123a28.493 28.493 0 0 1-1.514 1.827 18.65 18.65 0 0 1-1.633 1.62c-.537.465-.933.63-1.187.492-.216-.108-.303-.394-.262-.857.041-.462.147-1.03.318-1.703a27.86 27.86 0 0 1 .65-2.155c.263-.764.531-1.504.804-2.22.273-.716.523-1.356.75-1.92.227-.564.394-.966.501-1.206a44.477 44.477 0 0 0-5.234 6.267 59.383 59.383 0 0 0-4.322 7.351c-.09.173-.17.353-.24.541a.951.951 0 0 1-.355.454c-.34.199-.705.213-1.095.041a1.338 1.338 0 0 1-.771-.877 6.684 6.684 0 0 1 .108-3.302 37.03 37.03 0 0 1 1.078-3.255c.158-.442.428-1.027.811-1.755a82.28 82.28 0 0 1 1.316-2.396 109.847 109.847 0 0 1 3.236-5.323c.537-.825 1.027-1.572 1.471-2.24.444-.668.805-1.165 1.086-1.489.103-.109.161-.066.173.129.011.196-.006.443-.052.743-.046.299-.101.592-.165.876-.065.285-.11.446-.134.481a23.462 23.462 0 0 1-.947 2.652 92.383 92.383 0 0 1-1.201 2.704c-.422.912-.83 1.814-1.224 2.706-.394.893-.73 1.795-1.007 2.708a78.325 78.325 0 0 0 2.777-3.384c.883-1.139 1.734-2.21 2.552-3.213a48.08 48.08 0 0 1 2.394-2.73c.779-.817 1.545-1.478 2.297-1.983.363-.234.821-.265 1.371-.094.393.189.68.469.859.844.179.374.197.749.057 1.123a30.425 30.425 0 0 1-1.88 3.536 41.04 41.04 0 0 0-1.937 3.493 31.865 31.865 0 0 0 3.86-3.915c1.174-1.415 2.353-2.84 3.54-4.273.352-.43.733-.879 1.141-1.347a4.265 4.265 0 0 1 1.44-1.084c.204-.086.416-.141.635-.164.219-.023.452.019.7.124.386.155.678.428.877.816.198.389.211.772.039 1.151a6.546 6.546 0 0 1-.509 1.059c-.199.333-.387.671-.566 1.017-.221.449-.453.882-.696 1.3-.243.419-.495.838-.753 1.258a39.478 39.478 0 0 0-1.373 2.574 35.288 35.288 0 0 0-1.164 2.651 14.226 14.226 0 0 0-1.002 3.493 52.173 52.173 0 0 1 1.61-1.617c.554-.532 1.106-1.073 1.656-1.622.103-.109.428-.413.974-.912.545-.498 1.132-1.026 1.761-1.583a38.75 38.75 0 0 1 1.339-1.133c.496-1.047 1.028-2.075 1.643-3.058.452-.702.945-1.367 1.477-1.996a25.6 25.6 0 0 1 1.708-1.823 14.715 14.715 0 0 1 1.854-1.593 12.146 12.146 0 0 1 2.128-1.229 3.98 3.98 0 0 1 1.172-.343c.434-.062.86-.017 1.278.136.85.37 1.331.95 1.442 1.741.111.791-.007 1.629-.354 2.517-.172.378-.348.74-.527 1.086-.179.347-.374.694-.585 1.043a14.675 14.675 0 0 1-3.097 3.565 25.708 25.708 0 0 1-2.667 1.825c-.906.537-1.96 1.048-3.164 1.533a8.428 8.428 0 0 0-.82 3.229c.907-.095 1.859-.415 2.859-.961a19.473 19.473 0 0 0 2.922-1.975 59.523 59.523 0 0 0 2.779-2.402c.903-.831 1.729-1.58 2.478-2.247.055-.038.226-.203.514-.496.287-.292.592-.609.916-.955.323-.345.764-.775 1.322-1.292.076.058.021.243-.165.557zm-9.353 3.604a12.87 12.87 0 0 0 4.097-5.118c.46-1.03.753-2.124.88-3.284a15.034 15.034 0 0 0-3.812 3.59 69.458 69.458 0 0 0-3.083 4.496c-.235.386-.41.714-.525.988a91.68 91.68 0 0 1-.395.926c1-.4 1.946-.932 2.838-1.598zm-31.525-5.477a4.382 4.382 0 0 0-1.746.354 7.605 7.605 0 0 0-1.612.954c-.52.398-1.033.862-1.54 1.389a56.103 56.103 0 0 0-1.529 1.658c-.224.285-.627.851-1.207 1.697a24.362 24.362 0 0 0-1.685 2.901 19.752 19.752 0 0 0-1.315 3.379c-.334 1.164-.401 2.195-.202 3.09.878-.222 1.841-.789 2.887-1.7a21.89 21.89 0 0 0 2.948-3.156 24.853 24.853 0 0 0 2.387-3.736c.672-1.298 1.07-2.461 1.194-3.489.054-.333.063-.653.027-.961a2.955 2.955 0 0 0-.312-.974 2.277 2.277 0 0 1-.168-.326c.003-.131.152-.073.447.174.295.248.531.559.711.933.694 1.401.844 2.908.45 4.52-.395 1.613-1.096 3.143-2.102 4.59a19.68 19.68 0 0 1-3.514 3.854c-1.335 1.121-2.593 1.908-3.773 2.358a3.803 3.803 0 0 1-2.392.25 2.731 2.731 0 0 1-1.612-1.207c-.392-.614-.612-1.245-.66-1.896a8.941 8.941 0 0 1 .153-2.447 12.35 12.35 0 0 1 .748-2.361 21.92 21.92 0 0 1 1.174-2.284 21.491 21.491 0 0 1 1.723-2.512 26.258 26.258 0 0 1 2.195-2.44 15.09 15.09 0 0 1 2.507-2.005c.87-.548 1.763-.961 2.678-1.237a5.93 5.93 0 0 1 2.771-.166c.435.086.811.268 1.129.545.317.279.457.403.419.374a10.361 10.361 0 0 0-.426-.079 5.048 5.048 0 0 0-.753-.044zm-1.71-29.14a33.326 33.326 0 0 1-1.523 4.603l-1.847 4.441a406.987 406.987 0 0 1-3.53 7.784 622.797 622.797 0 0 1-3.681 7.751 73.79 73.79 0 0 1 3.291-.957c.938-.246 1.936-.505 2.996-.78.03-.003.137-.03.317-.082a6.752 6.752 0 0 1 1.128-.216c.172-.018.278-.012.316.016.052.093-.044.201-.288.325a5.416 5.416 0 0 0-.45.243 45.876 45.876 0 0 1-3.99 1.596c-1.353.469-2.713.938-4.08 1.408a888.482 888.482 0 0 1-4.917 10.187 456.742 456.742 0 0 1-5.089 10.059c-.938 1.833-1.865 3.64-2.782 5.422a67.151 67.151 0 0 1-3.011 5.25c-.08.074-.197.233-.35.479-.154.244-.301.342-.44.291-.07-.026-.097-.113-.082-.261.015-.149.036-.307.063-.474.027-.167.072-.326.134-.48a2.99 2.99 0 0 0 .118-.332 85.111 85.111 0 0 1 2.974-8.02 906.463 906.463 0 0 0 3.308-7.81c.96-2.163 1.908-4.308 2.844-6.436a643.918 643.918 0 0 1 2.856-6.388 49.52 49.52 0 0 1-2.039.655c-.675.202-1.34.419-1.992.65a247.197 247.197 0 0 1-7.335 2.312 769.27 769.27 0 0 1-7.414 2.174 61.81 61.81 0 0 1-1.158 2.355 62.53 62.53 0 0 0-1.157 2.355c-1.871 3.83-3.743 7.619-5.616 11.366a240.164 240.164 0 0 1-5.95 11.155 9.538 9.538 0 0 0-.36.652c-.191.363-.404.737-.639 1.122-.235.385-.464.719-.689 1.005-.224.285-.406.403-.546.352-.108-.055-.122-.266-.044-.634.078-.369.188-.773.331-1.213.142-.441.275-.848.401-1.22.125-.374.211-.596.26-.666a195.86 195.86 0 0 1 2.793-6.995c.975-2.312 1.96-4.616 2.955-6.914l2.561-5.767a272.758 272.758 0 0 1 2.619-5.725 203.8 203.8 0 0 0-5.442 1.329 69.807 69.807 0 0 1-5.52 1.19c-.706.139-1.42.271-2.144.395a7.797 7.797 0 0 1-2.219.06 1.651 1.651 0 0 0-.303-.066c-.132-.019-.165-.098-.1-.236.089-.172.272-.323.548-.45s.532-.235.768-.325a47.503 47.503 0 0 1 4.541-1.604c1.531-.454 3.074-.926 4.629-1.416 1.084-.31 2.169-.611 3.256-.904 1.087-.294 2.172-.595 3.255-.905.369-.791.731-1.574 1.087-2.348.357-.774.719-1.556 1.088-2.348.768-1.586 1.532-3.156 2.292-4.708a627.446 627.446 0 0 1 2.302-4.661 270.903 270.903 0 0 1 3.036-5.792 31.151 31.151 0 0 1 3.621-5.314c.28-.324.513-.429.698-.318a.457.457 0 0 1 .179.374c.004.164-.003.279-.02.346a29.688 29.688 0 0 1-1.94 6.292 273.8 273.8 0 0 1-2.683 5.977 181.444 181.444 0 0 1-2.595 5.722c-.883 1.86-1.771 3.738-2.663 5.631a895.806 895.806 0 0 0 9.074-2.371l9.063-2.419c.383-.728.733-1.459 1.049-2.197.317-.737.647-1.483.992-2.24a580.485 580.485 0 0 1 5.425-11.247 92.059 92.059 0 0 1 6.258-10.745c.152-.18.344-.397.575-.65.232-.253.449-.358.651-.313.185.111.24.36.165.744-.075.384-.138.677-.189.879zM120.191 3.115c-.459 1.391-.94 2.758-1.442 4.103a318.964 318.964 0 0 1-1.546 4.066 276.04 276.04 0 0 1-2.378 5.724 753.974 753.974 0 0 1-2.447 5.633 299.533 299.533 0 0 1-3.321 7.32 3503.425 3503.425 0 0 1-3.425 7.283c.505-.61 1.12-1.296 1.847-2.059.726-.764 1.483-1.538 2.269-2.324.786-.786 1.553-1.545 2.303-2.279a64.199 64.199 0 0 0 1.939-1.97c.335-.362.733-.731 1.194-1.107.461-.375.994-.497 1.6-.363.404.089.732.308.986.658.253.35.341.709.263 1.077-.079.37-.243.746-.493 1.132-.251.387-.465.753-.645 1.099a72.764 72.764 0 0 1-1.581 2.719 34.523 34.523 0 0 0-1.523 2.761 26.175 26.175 0 0 0-1.112 2.67 14.664 14.664 0 0 0-.694 2.823 223.35 223.35 0 0 1 3.041-3.387 46.544 46.544 0 0 1 3.271-3.214c.239-.222.487-.435.745-.643.258-.206.545-.392.861-.556.204-.087.273-.069.204.052a4.128 4.128 0 0 1-.176.289 5.851 5.851 0 0 1-.392.507c-.14.162-.271.332-.391.508a40.403 40.403 0 0 0-2.695 3.326 78.25 78.25 0 0 1-2.626 3.417c-.266.388-.542.769-.827 1.142-.285.374-.583.724-.895 1.051a1.784 1.784 0 0 1-1.035.526c-.403.058-.776-.107-1.118-.498-.305-.361-.492-.808-.562-1.341a9.245 9.245 0 0 1-.092-1.39c-.021-.816.117-1.706.416-2.671.297-.964.653-1.926 1.064-2.885.411-.96.851-1.898 1.32-2.815.468-.916.856-1.767 1.162-2.552-.838.841-1.737 1.729-2.698 2.663a48.987 48.987 0 0 0-2.948 3.157 48.017 48.017 0 0 0-2.999 3.898c-.996 1.43-1.965 3.046-2.91 4.846a5.885 5.885 0 0 1-.39.728.988.988 0 0 1-.642.46c-.368.071-.704-.033-1.005-.312-.302-.28-.445-.6-.43-.962.007-.263.061-.522.164-.779.103-.256.208-.504.314-.745a186.12 186.12 0 0 1 2.834-7.242c-.211.279-.414.56-.656.827l-1.079 1.193a71.619 71.619 0 0 0-3.825 4.181 9.269 9.269 0 0 0-1.159 1.373 24.73 24.73 0 0 1-1.092 1.465c-.104.109-.266.281-.485.517-.22.236-.354.389-.402.459-.194.282-.503.404-.927.367-.424-.038-.778-.189-1.06-.454-.322-.293-.486-.637-.493-1.029a5.06 5.06 0 0 1 .107-1.141 22.41 22.41 0 0 1 .603-2.371c.234-.744.505-1.509.811-2.294-.377.465-.739.928-1.084 1.389a18.1 18.1 0 0 1-1.058 1.29c-.546.712-1.1 1.391-1.66 2.039a55.478 55.478 0 0 1-1.775 1.953c-.152.18-.34.379-.563.599-.223.22-.456.4-.696.539-.242.14-.503.225-.784.254-.282.03-.568-.039-.861-.205a1.529 1.529 0 0 1-.774-.999c-.115-.446-.149-.852-.102-1.217.065-1.153.326-2.318.785-3.496a26.713 26.713 0 0 1 1.511-3.251c.548-.991 1.067-1.822 1.558-2.496.491-.672.813-1.099.965-1.279.442-.602.982-1.232 1.621-1.888a15.867 15.867 0 0 1 2.117-1.817 13.947 13.947 0 0 1 2.448-1.41 8.365 8.365 0 0 1 2.554-.708 6.513 6.513 0 0 1 1.497.04c.56.073 1.004.272 1.333.598.038.029.101.096.188.201.088.106.081.147-.02.125-.894-.135-1.715-.083-2.461.159a8.067 8.067 0 0 0-2.118 1.055c-.665.463-1.28 1.01-1.844 1.642-.564.632-1.117 1.238-1.66 1.818a23.732 23.732 0 0 0-1.447 1.919c-.508.74-.984 1.552-1.428 2.433a30.848 30.848 0 0 0-1.232 2.78 20.745 20.745 0 0 0-.902 2.967 60.256 60.256 0 0 0 3.331-3.269 469.764 469.764 0 0 1 3.372-3.52 23.735 23.735 0 0 1 1.684-1.821 30.957 30.957 0 0 0 1.767-1.879c.152-.179.35-.404.594-.676.244-.271.491-.525.743-.765.251-.238.474-.458.669-.659.196-.2.341-.305.435-.315a.615.615 0 0 1 .647.104c.195.16.286.356.273.586.015.064-.024.183-.113.355a23.051 23.051 0 0 1-.633 1.147 1.699 1.699 0 0 0-.184.363 50.79 50.79 0 0 0-1.218 2.189c-.44.832-.869 1.638-1.288 2.419-.42.78-.779 1.464-1.081 2.052-.301.589-.497.969-.587 1.142.239-.222.565-.517.979-.888.414-.37.737-.683.969-.936a50.707 50.707 0 0 1 2.285-2.031 41.469 41.469 0 0 1 2.459-1.902c.048-.07.183-.183.405-.337a.848.848 0 0 1 .314-.15 257.915 257.915 0 0 1 1.819-4.296 159.79 159.79 0 0 1 2.465-5.659 919.253 919.253 0 0 1 2.58-5.574c.899-1.861 1.794-3.706 2.685-5.534a205.55 205.55 0 0 1 2.753-5.445 122.49 122.49 0 0 1 2.009-3.819 42.859 42.859 0 0 1 2.239-3.647 7.66 7.66 0 0 0 .23-.368c.106-.174.218-.349.34-.526.12-.176.248-.321.384-.433.134-.112.237-.155.307-.13.038.029.072.107.1.235.015.359-.044.741-.178 1.148-.134.407-.255.796-.365 1.168zm-28.515 1.6c-.077.303-.158.59-.242.86a8.077 8.077 0 0 1-.187.56 82.506 82.506 0 0 1-1.741 4.921 892.933 892.933 0 0 1-1.965 4.993 306.633 306.633 0 0 1-2.412 5.679 3031.59 3031.59 0 0 1-2.471 5.635 397.667 397.667 0 0 1-2.316 5.03 222.256 222.256 0 0 0-2.306 5.078.453.453 0 0 1 .079.14.432.432 0 0 0 .078.139 85.442 85.442 0 0 1 2.253-2.397 102.87 102.87 0 0 1 2.716-2.689 54.258 54.258 0 0 1 2.662-2.39c.85-.71 1.575-1.228 2.175-1.553a.43.43 0 0 1 .313-.106c.128.003.164.089.105.259a1.67 1.67 0 0 1-.24.541 4.769 4.769 0 0 0-.298.497 30.401 30.401 0 0 1-1.843 2.403 37.063 37.063 0 0 1-2.205 2.391 42.588 42.588 0 0 1-2.413 2.216 19.764 19.764 0 0 1-2.521 1.835c-.025.035-.053.054-.083.057-.032.004-.044.022-.037.053.831 1.583 1.679 3.206 2.544 4.867a266.901 266.901 0 0 1 2.517 4.967c.098.154.172.342.222.567.049.223-.055.332-.312.327a1.6 1.6 0 0 1-.634-.155 6.67 6.67 0 0 1-.572-.309 6.22 6.22 0 0 1-1.202-.979 23.353 23.353 0 0 1-1.056-1.191c-.699-.844-1.401-1.843-2.104-2.997a36.441 36.441 0 0 1-1.773-3.229c-.565 1.206-1.108 2.4-1.629 3.583a34.682 34.682 0 0 1-1.755 3.449 5.063 5.063 0 0 1-.51.839c-.209.285-.438.439-.689.465-.437.046-.771-.091-1.003-.411a1.25 1.25 0 0 1-.229-1.032 28.247 28.247 0 0 1 1.607-4.44c.43-1.092.866-2.194 1.308-3.304.441-1.11.908-2.215 1.401-3.314a15.754 15.754 0 0 1-.279-1.69 9.67 9.67 0 0 1 .008-.615c.009-.246.085-.409.227-.49.149-.047.323.016.522.191.199.176.344.325.435.446a369.684 369.684 0 0 1 2.45-5.511 602.95 602.95 0 0 1 2.544-5.52 361.89 361.89 0 0 1 2.638-5.53 204 204 0 0 1 2.753-5.444A151.687 151.687 0 0 1 88.23 8.66a73.419 73.419 0 0 1 2.224-3.719l.217-.318.381-.555a2.26 2.26 0 0 1 .402-.459c.135-.113.237-.155.307-.13.077.058.101.202.073.434a6.645 6.645 0 0 1-.158.802zM71.355 32.668a4.356 4.356 0 0 0-1.745.354 7.545 7.545 0 0 0-1.613.954c-.52.398-1.033.861-1.54 1.389a57.33 57.33 0 0 0-1.529 1.657 39.13 39.13 0 0 0-1.207 1.698 24.419 24.419 0 0 0-1.685 2.901A19.634 19.634 0 0 0 60.722 45c-.335 1.164-.402 2.195-.203 3.09.878-.222 1.841-.789 2.887-1.701a21.838 21.838 0 0 0 2.948-3.156 24.752 24.752 0 0 0 2.387-3.736c.673-1.298 1.07-2.46 1.195-3.489.054-.332.063-.652.027-.96a2.978 2.978 0 0 0-.312-.974 2.28 2.28 0 0 1-.169-.326c.003-.131.152-.073.447.174.295.248.532.558.711.932.694 1.401.844 2.908.45 4.521-.394 1.612-1.095 3.143-2.102 4.59a19.672 19.672 0 0 1-3.513 3.853c-1.336 1.122-2.594 1.909-3.773 2.359-.788.343-1.586.427-2.393.249a2.723 2.723 0 0 1-1.612-1.207c-.391-.613-.612-1.245-.66-1.895a8.976 8.976 0 0 1 .153-2.447c.162-.786.411-1.573.749-2.362.295-.685.687-1.447 1.173-2.283a21.624 21.624 0 0 1 1.723-2.513 26.262 26.262 0 0 1 2.195-2.439 15.055 15.055 0 0 1 2.508-2.005 10.899 10.899 0 0 1 2.677-1.237 5.917 5.917 0 0 1 2.771-.166c.435.086.811.267 1.129.545.318.278.457.403.419.374a8.802 8.802 0 0 0-.425-.079 4.94 4.94 0 0 0-.754-.044zm-14.449 1.508a4.365 4.365 0 0 0-1.746.354 7.522 7.522 0 0 0-1.612.954c-.52.398-1.033.861-1.54 1.389a56.044 56.044 0 0 0-1.529 1.657c-.224.286-.627.851-1.207 1.697a24.516 24.516 0 0 0-1.685 2.902 19.742 19.742 0 0 0-1.315 3.378c-.334 1.165-.401 2.195-.202 3.091.878-.222 1.841-.789 2.887-1.701a21.89 21.89 0 0 0 2.948-3.156 24.752 24.752 0 0 0 2.387-3.736c.672-1.298 1.07-2.461 1.195-3.489.053-.332.063-.652.027-.96a2.995 2.995 0 0 0-.312-.974 2.207 2.207 0 0 1-.169-.327c.003-.13.152-.072.447.175.295.248.532.558.711.932.694 1.401.844 2.908.45 4.521-.395 1.612-1.095 3.143-2.102 4.59a19.672 19.672 0 0 1-3.513 3.853c-1.336 1.122-2.594 1.909-3.773 2.359-.788.343-1.586.427-2.393.249a2.723 2.723 0 0 1-1.612-1.207c-.392-.613-.612-1.245-.66-1.895a8.976 8.976 0 0 1 .153-2.447 12.36 12.36 0 0 1 .748-2.362c.296-.685.688-1.447 1.174-2.283a21.624 21.624 0 0 1 1.723-2.513 26.12 26.12 0 0 1 2.195-2.439 15.055 15.055 0 0 1 2.508-2.005 10.899 10.899 0 0 1 2.677-1.237 5.93 5.93 0 0 1 2.771-.167c.435.086.811.268 1.129.546.318.278.457.402.419.373a10.573 10.573 0 0 0-.425-.078 4.813 4.813 0 0 0-.754-.044zm-1.71-29.141a33.384 33.384 0 0 1-1.523 4.604l-1.847 4.44a400.886 400.886 0 0 1-3.53 7.784 602.43 602.43 0 0 1-3.681 7.751 73.407 73.407 0 0 1 3.292-.957c.937-.245 1.935-.504 2.995-.779.031-.003.137-.03.317-.082.181-.052.371-.096.571-.133.199-.038.385-.066.558-.083.171-.018.277-.012.315.016.052.093-.044.201-.288.324a5.477 5.477 0 0 0-.45.244 45.867 45.867 0 0 1-3.99 1.595c-1.353.469-2.712.938-4.08 1.408a888.685 888.685 0 0 1-4.917 10.188 454.52 454.52 0 0 1-5.089 10.058 2998.07 2998.07 0 0 1-2.781 5.423 67.486 67.486 0 0 1-3.012 5.25c-.08.073-.197.233-.35.478-.154.245-.301.342-.439.292-.071-.026-.097-.113-.082-.262.015-.149.035-.307.063-.473.026-.167.071-.327.133-.481.062-.153.101-.264.118-.331a85.13 85.13 0 0 1 2.974-8.021 863.669 863.669 0 0 0 3.308-7.81c.96-2.163 1.908-4.307 2.845-6.436a611.762 611.762 0 0 1 2.855-6.387c-.684.235-1.363.453-2.039.654-.675.202-1.339.419-1.992.65a250.217 250.217 0 0 1-7.335 2.313c-2.446.73-4.918 1.454-7.414 2.173a62.556 62.556 0 0 1-1.157 2.355 61.1 61.1 0 0 0-1.158 2.356 1422.034 1422.034 0 0 1-5.616 11.366 239.72 239.72 0 0 1-5.95 11.155c-.049.07-.169.288-.359.651a21.3 21.3 0 0 1-.639 1.123c-.235.384-.465.719-.689 1.005-.225.285-.407.402-.547.351-.108-.054-.122-.265-.044-.633.079-.369.188-.773.331-1.214.142-.44.275-.847.401-1.22.125-.374.212-.595.261-.666a194.717 194.717 0 0 1 2.792-6.995 834.59 834.59 0 0 1 2.955-6.914l2.561-5.767a280.401 280.401 0 0 1 2.618-5.725c-1.826.42-3.64.864-5.441 1.329a68.83 68.83 0 0 1-5.52 1.19c-.705.14-1.42.271-2.144.396a7.833 7.833 0 0 1-2.219.06 1.638 1.638 0 0 0-.303-.067c-.132-.018-.165-.097-.1-.235.089-.173.272-.323.548-.45s.532-.235.768-.326a47.495 47.495 0 0 1 4.541-1.603c1.531-.455 3.074-.927 4.63-1.416 1.083-.31 2.168-.611 3.255-.905 1.087-.293 2.172-.595 3.255-.905.369-.791.731-1.574 1.088-2.347.356-.774.718-1.556 1.087-2.349.768-1.585 1.532-3.155 2.292-4.708.76-1.552 1.527-3.106 2.302-4.66a271 271 0 0 1 3.036-5.793 31.299 31.299 0 0 1 3.621-5.313c.28-.324.513-.43.698-.319a.46.46 0 0 1 .179.375c.004.163-.003.278-.019.345a29.758 29.758 0 0 1-1.941 6.293 264.475 264.475 0 0 1-2.683 5.976 178.192 178.192 0 0 1-2.595 5.722c-.883 1.861-1.771 3.738-2.663 5.632a895.806 895.806 0 0 0 9.074-2.371l9.064-2.42c.382-.727.732-1.459 1.049-2.196.316-.737.646-1.483.991-2.24a574.836 574.836 0 0 1 5.426-11.248 92.052 92.052 0 0 1 6.257-10.745c.152-.18.344-.396.576-.65.232-.253.448-.357.65-.313.185.112.24.36.165.744-.075.385-.138.677-.189.879z" opacity=".902"/>
</svg>
