<svg xmlns="http://www.w3.org/2000/svg" width="1076" height="409">
    <path fill-rule="evenodd" d="M1074.945 237.368a168.765 168.765 0 0 1-3.424 5.502 124.675 124.675 0 0 1-3.886 5.679c-1.284 1.766-2.052 2.831-2.303 3.199a490.312 490.312 0 0 1-16.298 19.323c-5.623 6.335-12.004 12.275-19.139 17.82a105.19 105.19 0 0 1-10.842 7.692c-3.828 2.369-8.009 3.88-12.547 4.527-3.924.411-7.687-.526-11.285-2.806-3.598-2.281-5.635-5.625-6.11-10.036-1.011-8.614-.222-16.66 2.345-24.147-.077.086-.15.177-.228.262a271.801 271.801 0 0 0-4.516 5.102c-3.51 3.799-6.99 7.72-10.443 11.766-3.455 4.051-6.897 8.14-10.331 12.269-.923 1.125-1.913 2.515-2.966 4.169-1.058 1.653-1.981 2.951-2.777 3.891-1.265 1.848-2.832 3.467-4.695 4.863-1.867 1.393-4.068 1.281-6.598-.339-.969-.586-1.716-1.323-2.245-2.209a110.852 110.852 0 0 1-1.621-2.788 25.093 25.093 0 0 1-1.452-7.693 71.811 71.811 0 0 1 .209-8.124 52.619 52.619 0 0 1 1.246-7.975c.605-2.547 1.24-4.973 1.903-7.273 1.249-4.929 3.183-10.363 5.802-16.296 2.615-5.932 5.033-11.072 7.251-15.419a164.134 164.134 0 0 0-14.005 13.81 501.84 501.84 0 0 0-13.181 15.268c-.671.757-2.201 2.718-4.594 5.882a148.958 148.958 0 0 1-7.917 9.573c-2.887 3.219-5.731 6.044-8.536 8.48-2.808 2.439-4.876 3.299-6.204 2.578-1.128-.566-1.585-2.061-1.369-4.487.217-2.422.77-5.394 1.664-8.919.891-3.521 2.026-7.286 3.398-11.287a369.307 369.307 0 0 1 4.201-11.628 586.71 586.71 0 0 1 3.921-10.055c1.185-2.953 2.056-5.058 2.616-6.318-10.006 9.964-19.126 20.904-27.359 32.825-8.236 11.922-15.765 24.758-22.591 38.501-.47.905-.888 1.849-1.255 2.832a4.993 4.993 0 0 1-1.856 2.38c-1.777 1.042-3.682 1.112-5.724.213-2.039-.904-3.381-2.436-4.028-4.595-1.26-5.695-1.071-11.462.564-17.292a195.239 195.239 0 0 1 5.635-17.051c.825-2.312 2.236-5.378 4.239-9.188a430.966 430.966 0 0 1 6.882-12.551 575.568 575.568 0 0 1 8.292-14.114 531.891 531.891 0 0 1 8.621-13.761c2.807-4.321 5.368-8.234 7.69-11.736 2.319-3.498 4.209-6.099 5.676-7.795.54-.571.841-.346.902.677.058 1.022-.031 2.318-.268 3.886a66.92 66.92 0 0 1-.866 4.592c-.34 1.494-.573 2.334-.698 2.516a122.446 122.446 0 0 1-4.953 13.893 483.43 483.43 0 0 1-6.275 14.16 892.715 892.715 0 0 0-6.398 14.172 125.393 125.393 0 0 0-5.266 14.183 410.916 410.916 0 0 0 14.519-17.722 842.207 842.207 0 0 1 13.337-16.827c4.273-5.246 8.447-10.015 12.517-14.298 4.07-4.284 8.071-7.745 12.003-10.386 1.9-1.228 4.291-1.389 7.167-.492 2.057.986 3.555 2.457 4.49 4.417.936 1.96 1.033 3.923.299 5.885a159.417 159.417 0 0 1-9.827 18.517 215.608 215.608 0 0 0-10.127 18.293 166.853 166.853 0 0 0 20.177-20.501c6.137-7.413 12.303-14.874 18.505-22.383 1.842-2.25 3.831-4.6 5.966-7.054 2.131-2.449 4.641-4.343 7.526-5.674a11.55 11.55 0 0 1 3.321-.862c1.142-.119 2.363.099 3.656.647 2.02.818 3.547 2.245 4.585 4.279 1.036 2.038 1.103 4.044.205 6.023a34.461 34.461 0 0 1-2.661 5.551 100.892 100.892 0 0 0-2.961 5.325 111.303 111.303 0 0 1-3.636 6.811 308.836 308.836 0 0 1-3.937 6.585 209.164 209.164 0 0 0-7.178 13.482 187.922 187.922 0 0 0-6.085 13.882 74.748 74.748 0 0 0-5.234 18.296 269.367 269.367 0 0 1 8.413-8.468 656.39 656.39 0 0 0 8.658-8.493c.54-.571 2.238-2.163 5.09-4.776a743.37 743.37 0 0 1 9.204-8.293 209.098 209.098 0 0 1 6.836-5.828 155.49 155.49 0 0 1 8.752-16.122 99.496 99.496 0 0 1 7.723-10.452 133.572 133.572 0 0 1 8.926-9.55 76.506 76.506 0 0 1 9.695-8.344 63.553 63.553 0 0 1 11.121-6.436c1.814-.873 3.853-1.472 6.125-1.798a13.584 13.584 0 0 1 6.682.716c4.444 1.939 6.955 4.976 7.537 9.114.58 4.143-.035 8.536-1.849 13.183a125.11 125.11 0 0 1-2.755 5.689 96.412 96.412 0 0 1-3.056 5.464c-4.439 7.152-9.836 13.375-16.191 18.669-4.567 3.564-9.213 6.751-13.942 9.56-4.734 2.81-10.245 5.488-16.539 8.031-2.522 5.239-3.952 10.874-4.286 16.91 4.74-.496 9.72-2.174 14.943-5.035 5.22-2.861 10.311-6.307 15.274-10.343a310.025 310.025 0 0 0 14.529-12.578 1149.92 1149.92 0 0 1 12.95-11.772c.29-.199 1.184-1.064 2.688-2.596 1.5-1.527 3.095-3.193 4.789-5.001 1.69-1.805 3.994-4.059 6.907-6.767.401.304.114 1.274-.859 2.919zm-48.889 18.872a68.285 68.285 0 0 0 12.405-11.971c3.604-4.492 6.606-9.436 9.011-14.831 2.401-5.396 3.936-11.126 4.599-17.2a78.6 78.6 0 0 0-19.926 18.802c-5.547 7.44-10.917 15.288-16.115 23.548-1.227 2.017-2.143 3.741-2.743 5.174a597.412 597.412 0 0 1-2.064 4.845c5.222-2.089 10.168-4.877 14.833-8.367zm-160.849-28.451c-.956-.157-2.27-.232-3.94-.231a22.765 22.765 0 0 0-9.124 1.855c-2.903 1.247-5.714 2.912-8.429 4.996-2.717 2.085-5.399 4.511-8.05 7.273a298.013 298.013 0 0 0-7.989 8.68c-1.174 1.497-3.279 4.458-6.312 8.89-3.034 4.433-5.97 9.498-8.806 15.196a103.19 103.19 0 0 0-6.872 17.695c-1.748 6.098-2.097 11.496-1.059 16.186 4.592-1.163 9.623-4.133 15.089-8.908 5.468-4.772 10.604-10.28 15.411-16.529 4.804-6.246 8.966-12.77 12.479-19.568 3.514-6.797 5.593-12.886 6.243-18.271.281-1.742.33-3.419.142-5.031-.192-1.607-.733-3.307-1.632-5.102-.552-.971-.842-1.539-.88-1.709.013-.684.794-.38 2.335.914 1.542 1.298 2.78 2.924 3.716 4.884 3.631 7.337 4.413 15.229 2.354 23.675-2.063 8.446-5.726 16.461-10.987 24.04-5.265 7.584-11.386 14.309-18.366 20.182-6.979 5.874-13.556 9.994-19.722 12.351-4.118 1.801-8.287 2.237-12.507 1.308-3.569-.997-6.375-3.103-8.424-6.321-2.048-3.214-3.2-6.522-3.452-9.928-.313-4.424-.043-8.696.802-12.816.845-4.115 2.148-8.238 3.911-12.369 1.546-3.589 3.592-7.577 6.135-11.958 2.543-4.382 5.543-8.767 9.005-13.16 3.459-4.388 7.283-8.646 11.474-12.774 4.188-4.123 8.557-7.622 13.107-10.501 4.546-2.875 9.212-5.034 13.996-6.479 4.782-1.441 9.61-1.732 14.485-.872 2.271.45 4.239 1.402 5.901 2.856 1.66 1.458 2.388 2.109 2.19 1.957a49.204 49.204 0 0 0-2.224-.411zM852.33 74.938c-2.143 8.455-4.798 16.493-7.962 24.11-3.166 7.621-6.382 15.373-9.655 23.258a2104.39 2104.39 0 0 1-18.451 40.768 3179.432 3179.432 0 0 1-19.242 40.594c6.57-2.058 12.304-3.73 17.206-5.014a7624.928 7624.928 0 0 1 15.657-4.081c.161-.017.717-.159 1.661-.431a37.075 37.075 0 0 1 5.897-1.131c.896-.093 1.448-.063 1.649.085.272.486-.229 1.053-1.505 1.701-1.28.648-2.063 1.076-2.353 1.274a238.606 238.606 0 0 1-20.857 8.355 8173.86 8173.86 0 0 1-21.326 7.374 4717.87 4717.87 0 0 1-25.7 53.357 2396.567 2396.567 0 0 1-26.603 52.681c-4.901 9.599-9.749 19.064-14.54 28.398a352.099 352.099 0 0 1-15.743 27.496c-.416.385-1.027 1.221-1.829 2.506-.806 1.282-1.571 1.792-2.296 1.526-.367-.134-.507-.59-.429-1.369.078-.78.185-1.607.33-2.478.139-.875.374-1.711.697-2.517.324-.805.529-1.385.62-1.736a445.163 445.163 0 0 1 15.542-42.008 4577.109 4577.109 0 0 0 17.291-40.904c5.02-11.327 9.975-22.56 14.87-33.706a3197.749 3197.749 0 0 1 14.926-33.455 263.593 263.593 0 0 1-10.657 3.43 215.215 215.215 0 0 0-10.412 3.403 1293.842 1293.842 0 0 1-38.342 12.111 4125.995 4125.995 0 0 1-38.754 11.383 327.835 327.835 0 0 1-6.052 12.336 326.187 326.187 0 0 0-6.051 12.335 7406.73 7406.73 0 0 1-29.353 59.527 1260.229 1260.229 0 0 1-31.103 58.424c-.255.368-.881 1.507-1.879 3.412a110.64 110.64 0 0 1-3.34 5.879c-1.229 2.014-2.428 3.766-3.603 5.264-1.174 1.493-2.125 2.107-2.854 1.842-.565-.287-.641-1.392-.233-3.32.412-1.932.986-4.049 1.73-6.354a537.016 537.016 0 0 1 2.098-6.392c.653-1.957 1.106-3.118 1.361-3.486 4.633-12.316 9.5-24.529 14.599-36.636a4186.77 4186.77 0 0 1 15.445-36.21c4.46-10.067 8.923-20.135 13.386-30.207a1468.211 1468.211 0 0 1 13.687-29.982c-9.549 2.2-19.032 4.522-28.442 6.961a361.938 361.938 0 0 1-28.854 6.232 460.03 460.03 0 0 1-11.209 2.072c-3.787.654-7.653.76-11.598.313-.366-.131-.894-.248-1.582-.349-.692-.097-.866-.509-.524-1.231.467-.905 1.421-1.692 2.866-2.358a65.881 65.881 0 0 1 4.013-1.705 248.571 248.571 0 0 1 23.733-8.398c8.005-2.38 16.071-4.851 24.202-7.417a1240.694 1240.694 0 0 1 17.016-4.738 1166.306 1166.306 0 0 0 17.017-4.737 3303.56 3303.56 0 0 0 5.684-12.297 3049.61 3049.61 0 0 1 5.683-12.297 6954.748 6954.748 0 0 1 11.98-24.659c3.971-8.132 7.98-16.267 12.036-24.407a1419.514 1419.514 0 0 1 15.866-30.338 163.49 163.49 0 0 1 18.931-27.83c1.463-1.696 2.678-2.249 3.646-1.667.602.452.911 1.107.935 1.96.022.858-.014 1.461-.101 1.811a155.969 155.969 0 0 1-10.144 32.955c-4.596 10.6-9.27 21.031-14.022 31.303a949.33 949.33 0 0 1-13.565 29.968c-4.618 9.743-9.259 19.576-13.921 29.492a4630.241 4630.241 0 0 0 47.432-12.419l47.377-12.67a162.217 162.217 0 0 0 5.482-11.504 596.318 596.318 0 0 1 5.182-11.731c9.2-19.65 18.653-39.286 28.361-58.909 9.708-19.618 20.611-38.377 32.707-56.276.795-.94 1.799-2.073 3.01-3.402 1.213-1.324 2.346-1.872 3.401-1.641.964.586 1.252 1.886.862 3.897-.393 2.014-.72 3.547-.988 4.604zM624.596 14.367a609.965 609.965 0 0 1-7.537 21.494 1729.484 1729.484 0 0 1-8.083 21.293 1441.902 1441.902 0 0 1-12.434 29.979 3653.592 3653.592 0 0 1-12.79 29.502c-5.324 12.22-11.113 24.998-17.357 38.339a19005.352 19005.352 0 0 1-17.904 38.139c2.638-3.19 5.857-6.786 9.657-10.784a695.846 695.846 0 0 1 11.858-12.171 1592.63 1592.63 0 0 1 12.037-11.933c3.918-3.838 7.296-7.278 10.136-10.32 1.752-1.895 3.833-3.829 6.244-5.797 2.407-1.964 5.195-2.601 8.36-1.903 2.111.467 3.828 1.617 5.154 3.448 1.324 1.835 1.783 3.716 1.375 5.644-.412 1.932-1.268 3.906-2.577 5.928-1.308 2.026-2.432 3.943-3.369 5.753a389.073 389.073 0 0 1-8.264 14.24c-3.006 4.944-5.659 9.766-7.964 14.464a136.93 136.93 0 0 0-5.812 13.983 77.18 77.18 0 0 0-3.628 14.783 1196.886 1196.886 0 0 1 15.896-17.738c5.117-5.591 10.818-11.202 17.099-16.834a71.667 71.667 0 0 1 3.896-3.366 27.335 27.335 0 0 1 4.499-2.913c1.068-.454 1.425-.363 1.064.274-.36.64-.668 1.143-.92 1.511a30.339 30.339 0 0 1-2.046 2.657 29.941 29.941 0 0 0-2.046 2.658 210.591 210.591 0 0 0-14.084 17.419 406.49 406.49 0 0 1-13.728 17.897 146.315 146.315 0 0 1-4.321 5.982 66.697 66.697 0 0 1-4.678 5.505c-1.504 1.532-3.309 2.444-5.413 2.752-2.108.305-4.056-.56-5.845-2.604-1.591-1.891-2.568-4.233-2.935-7.023-.366-2.791-.527-5.218-.482-7.281-.111-4.272.613-8.938 2.173-13.987a153.262 153.262 0 0 1 5.562-15.114 241.409 241.409 0 0 1 6.899-14.74c2.451-4.798 4.476-9.253 6.074-13.367a1305.18 1305.18 0 0 1-14.099 13.949c-5.024 4.898-10.159 10.41-15.41 16.53-5.255 6.123-10.48 12.927-15.68 20.415-5.203 7.489-10.269 15.952-15.207 25.382a30.975 30.975 0 0 1-2.041 3.815c-.806 1.282-1.922 2.086-3.356 2.408-1.925.371-3.676-.174-5.255-1.637-1.578-1.462-2.326-3.14-2.244-5.038.033-1.374.316-2.734.854-4.076.542-1.342 1.09-2.642 1.646-3.901 3.644-9.982 7.794-20.705 12.451-32.168.742-1.827 1.476-3.623 2.207-5.405a62.647 62.647 0 0 1-3.274 3.974l-5.642 6.248c-6.298 6.318-12.962 13.617-19.993 21.896-2.337 2.302-4.355 4.699-6.061 7.192a128.272 128.272 0 0 1-5.704 7.67c-.544.571-1.39 1.476-2.537 2.709-1.149 1.237-1.85 2.038-2.102 2.406-1.014 1.477-2.629 2.115-4.843 1.921-2.22-.198-4.069-.989-5.545-2.378-1.681-1.536-2.538-3.336-2.573-5.39a26.154 26.154 0 0 1 .56-5.974c.87-4.375 1.918-8.516 3.147-12.418a194.716 194.716 0 0 1 4.24-12.018 246.36 246.36 0 0 0-5.665 7.28 93.867 93.867 0 0 1-5.531 6.751 234.783 234.783 0 0 1-8.675 10.681 290.782 290.782 0 0 1-9.278 10.23c-.795.943-1.779 1.987-2.944 3.137-1.168 1.151-2.382 2.094-3.64 2.824a10.187 10.187 0 0 1-4.097 1.329c-1.471.154-2.969-.204-4.502-1.073-2.094-1.151-3.44-2.895-4.045-5.235-.599-2.337-.775-4.461-.532-6.375.338-6.036 1.704-12.138 4.103-18.305 2.398-6.167 5.031-11.843 7.897-17.03 2.867-5.187 5.58-9.542 8.147-13.069 2.565-3.524 4.246-5.757 5.041-6.7 2.312-3.156 5.134-6.453 8.475-9.889 3.336-3.435 7.025-6.606 11.066-9.516a72.888 72.888 0 0 1 12.793-7.382c4.486-2.013 8.94-3.251 13.355-3.712 2.287-.239 4.895-.166 7.824.211 2.927.381 5.247 1.424 6.966 3.13.198.152.527.503.986 1.054.456.555.421.772-.106.654-4.674-.709-8.964-.433-12.864.831-3.902 1.268-7.591 3.108-11.07 5.53-3.478 2.421-6.693 5.289-9.639 8.595a532.041 532.041 0 0 1-8.681 9.524c-2.386 2.822-4.906 6.172-7.561 10.051-2.654 3.878-5.144 8.125-7.467 12.741a161.897 161.897 0 0 0-6.436 14.562 108.381 108.381 0 0 0-4.715 15.54c5.572-5.04 11.378-10.747 17.411-17.124a2383.722 2383.722 0 0 1 17.623-18.433c2.638-3.19 5.573-6.37 8.804-9.537a163.645 163.645 0 0 0 9.238-9.84c.796-.939 1.828-2.12 3.105-3.54a72.262 72.262 0 0 1 3.881-4.006 132.767 132.767 0 0 0 3.501-3.453c1.023-1.047 1.779-1.601 2.269-1.652 1.233-.471 2.359-.287 3.383.546 1.02.838 1.497 1.861 1.431 3.066.075.338-.125.957-.592 1.862-.469.91-1.001 1.906-1.594 2.996a84.902 84.902 0 0 1-1.718 3.009c-.55.918-.873 1.55-.959 1.901-1.95 3.291-4.071 7.113-6.369 11.469a2392.639 2392.639 0 0 1-6.731 12.664 640.506 640.506 0 0 0-5.65 10.751 2330.642 2330.642 0 0 1-3.067 5.979 420.68 420.68 0 0 1 5.117-4.65c2.163-1.939 3.851-3.574 5.063-4.903a266.61 266.61 0 0 1 11.947-10.637 218.344 218.344 0 0 1 12.849-9.96c.252-.368.957-.956 2.119-1.765.69-.479 1.242-.758 1.664-.846a1346.451 1346.451 0 0 1 9.488-22.44 830.23 830.23 0 0 1 12.884-29.64 4754.968 4754.968 0 0 1 13.487-29.189 9549.59 9549.59 0 0 1 14.032-28.989 1083.044 1083.044 0 0 1 14.389-28.512 652.984 652.984 0 0 1 10.502-20.003 225.074 225.074 0 0 1 11.705-19.1c.252-.367.655-1.009 1.204-1.926a56.597 56.597 0 0 1 1.774-2.757c.63-.923 1.298-1.68 2.007-2.268.704-.588 1.239-.813 1.605-.682.198.152.376.563.523 1.231.079 1.881-.23 3.882-.927 6.013a204.676 204.676 0 0 0-1.908 6.115zM475.54 22.75a90.119 90.119 0 0 1-1.261 4.505c-.439 1.42-.768 2.395-.982 2.932a428.77 428.77 0 0 1-9.1 25.772 4966.538 4966.538 0 0 1-10.269 26.152 1579.761 1579.761 0 0 1-12.612 29.74c-4.273 9.795-8.576 19.633-12.912 29.515a2091.934 2091.934 0 0 1-12.109 26.344 1179.566 1179.566 0 0 0-12.053 26.596c.235.321.375.563.412.728.037.169.173.412.412.729 3.219-3.592 7.143-7.776 11.775-12.549a535.954 535.954 0 0 1 14.194-14.087c4.831-4.62 9.471-8.791 13.916-12.515 4.445-3.72 8.236-6.431 11.372-8.134.416-.385.959-.57 1.633-.557.67.019.856.47.551 1.357a8.801 8.801 0 0 1-1.255 2.833c-.569.83-1.09 1.701-1.556 2.606-2.781 4.064-5.993 8.258-9.635 12.581a193.508 193.508 0 0 1-11.53 12.523 220.455 220.455 0 0 1-12.61 11.607c-4.364 3.716-8.756 6.92-13.179 9.609-.127.186-.274.286-.434.303-.165.017-.227.112-.19.277 4.344 8.291 8.773 16.79 13.294 25.488a1379.768 1379.768 0 0 1 13.16 26.017c.511.803.898 1.791 1.158 2.966.259 1.17-.285 1.741-1.628 1.713a8.398 8.398 0 0 1-3.316-.811 35.582 35.582 0 0 1-2.992-1.616 32.596 32.596 0 0 1-6.279-5.131 118.514 118.514 0 0 1-5.521-6.238c-3.655-4.417-7.322-9.652-11.001-15.697-3.682-6.046-6.768-11.679-9.262-16.908a869.894 869.894 0 0 0-8.517 18.766 181.996 181.996 0 0 1-9.174 18.064c-.684 1.446-1.575 2.91-2.666 4.394-1.094 1.489-2.291 2.298-3.601 2.435-2.288.239-4.034-.479-5.244-2.153-1.205-1.674-1.604-3.473-1.196-5.405 2.003-7.58 4.8-15.331 8.401-23.256 2.247-5.72 4.522-11.488 6.834-17.304a445.287 445.287 0 0 1 7.324-17.356 85.62 85.62 0 0 1-.851-4.412 62.693 62.693 0 0 1-.606-4.438 49.162 49.162 0 0 1 .04-3.219c.047-1.292.443-2.145 1.188-2.568.78-.251 1.688.081 2.73 1.001 1.039.919 1.796 1.701 2.274 2.334a1911.3 1911.3 0 0 1 12.806-28.861 3037.517 3037.517 0 0 1 13.297-28.911 1935.624 1935.624 0 0 1 13.787-28.964 1083.073 1083.073 0 0 1 14.389-28.512 803.26 803.26 0 0 1 10.585-19.626 384.672 384.672 0 0 1 11.622-19.477l1.137-1.662 1.991-2.909c.693-1.012 1.393-1.817 2.102-2.405.704-.589 1.239-.813 1.605-.683.4.304.525 1.062.378 2.276-.15 1.217-.424 2.616-.826 4.201zM373.26 169.38c-.956-.157-2.27-.232-3.94-.231a22.748 22.748 0 0 0-9.124 1.855c-2.903 1.248-5.714 2.912-8.428 4.996-2.718 2.085-5.4 4.512-8.051 7.272a300.803 300.803 0 0 0-7.989 8.681c-1.174 1.497-3.279 4.458-6.312 8.89-3.034 4.433-5.97 9.498-8.806 15.196a103.19 103.19 0 0 0-6.872 17.695c-1.747 6.098-2.097 11.496-1.059 16.186 4.592-1.163 9.623-4.133 15.089-8.908 5.468-4.772 10.604-10.28 15.411-16.53 4.804-6.245 8.966-12.769 12.479-19.567 3.514-6.797 5.593-12.886 6.243-18.271.281-1.742.33-3.419.142-5.031-.192-1.607-.733-3.307-1.632-5.102-.552-.971-.842-1.54-.879-1.708.013-.685.794-.381 2.334.913 1.542 1.298 2.78 2.925 3.716 4.884 3.631 7.337 4.413 15.229 2.354 23.675-2.062 8.446-5.726 16.461-10.987 24.04-5.265 7.584-11.386 14.309-18.366 20.183-6.979 5.874-13.556 9.993-19.722 12.35-4.118 1.801-8.286 2.237-12.507 1.308-3.568-.997-6.375-3.103-8.424-6.321-2.048-3.214-3.2-6.522-3.452-9.928-.313-4.424-.043-8.696.802-12.815.845-4.116 2.148-8.239 3.911-12.37 1.546-3.59 3.592-7.577 6.135-11.959 2.543-4.381 5.544-8.766 9.005-13.159 3.459-4.388 7.284-8.646 11.474-12.774 4.188-4.123 8.557-7.622 13.107-10.501 4.546-2.875 9.212-5.035 13.996-6.479 4.782-1.441 9.61-1.732 14.485-.872 2.272.45 4.239 1.402 5.901 2.856 1.66 1.458 2.388 2.109 2.19 1.957a49.204 49.204 0 0 0-2.224-.411zm-75.528 7.897c-.956-.157-2.27-.232-3.94-.23a22.75 22.75 0 0 0-9.124 1.854c-2.903 1.247-5.714 2.912-8.428 4.996-2.718 2.085-5.4 4.511-8.05 7.273a299.437 299.437 0 0 0-7.99 8.68c-1.174 1.497-3.279 4.458-6.312 8.89-3.033 4.433-5.97 9.498-8.805 15.196a103.194 103.194 0 0 0-6.873 17.695c-1.747 6.098-2.097 11.496-1.059 16.186 4.592-1.163 9.623-4.133 15.09-8.908 5.467-4.772 10.603-10.28 15.41-16.529 4.804-6.246 8.966-12.77 12.48-19.568 3.513-6.797 5.592-12.886 6.243-18.271.281-1.742.329-3.419.141-5.031-.191-1.607-.732-3.307-1.631-5.102-.552-.971-.843-1.539-.88-1.708.013-.685.794-.381 2.335.913 1.541 1.298 2.779 2.924 3.715 4.884 3.631 7.337 4.413 15.229 2.355 23.675-2.063 8.446-5.727 16.461-10.988 24.04-5.265 7.584-11.386 14.309-18.366 20.183-6.979 5.874-13.555 9.994-19.722 12.35-4.117 1.801-8.286 2.237-12.506 1.308-3.569-.997-6.376-3.103-8.425-6.321-2.048-3.214-3.2-6.522-3.452-9.927-.312-4.425-.043-8.697.802-12.816.845-4.116 2.148-8.239 3.911-12.37 1.546-3.589 3.592-7.577 6.135-11.958 2.543-4.382 5.544-8.767 9.005-13.16 3.459-4.388 7.284-8.646 11.475-12.774 4.187-4.123 8.557-7.622 13.106-10.501 4.546-2.875 9.212-5.034 13.996-6.479 4.782-1.441 9.61-1.732 14.485-.872 2.272.45 4.239 1.402 5.901 2.856 1.66 1.458 2.388 2.109 2.19 1.957a48.937 48.937 0 0 0-2.224-.411zM284.855 24.426c-2.143 8.455-4.798 16.493-7.961 24.11-3.167 7.621-6.383 15.373-9.656 23.259a2107.042 2107.042 0 0 1-18.451 40.767 3179.432 3179.432 0 0 1-19.242 40.594c6.57-2.058 12.304-3.73 17.207-5.014a7452.892 7452.892 0 0 1 15.656-4.081c.161-.016.717-.159 1.661-.431a37.075 37.075 0 0 1 5.897-1.131c.896-.093 1.448-.063 1.649.085.273.486-.229 1.053-1.505 1.701-1.28.648-2.063 1.076-2.352 1.275a238.932 238.932 0 0 1-20.858 8.354 8173.86 8173.86 0 0 1-21.326 7.374 4683.814 4683.814 0 0 1-25.7 53.357 2396.567 2396.567 0 0 1-26.603 52.681c-4.901 9.599-9.749 19.064-14.539 28.398a352.42 352.42 0 0 1-15.743 27.496c-.417.385-1.028 1.221-1.829 2.506-.806 1.282-1.572 1.792-2.297 1.526-.367-.134-.507-.59-.429-1.369.079-.78.186-1.607.33-2.478.14-.875.374-1.711.698-2.517.323-.805.528-1.385.619-1.736a445.163 445.163 0 0 1 15.542-42.008 4547.942 4547.942 0 0 0 17.291-40.904c5.02-11.327 9.975-22.56 14.871-33.706a3176.89 3176.89 0 0 1 14.925-33.455 263.593 263.593 0 0 1-10.657 3.43 215.576 215.576 0 0 0-10.412 3.403 1295.9 1295.9 0 0 1-38.342 12.112 4147.435 4147.435 0 0 1-38.754 11.382 327.812 327.812 0 0 1-6.051 12.336 324.005 324.005 0 0 0-6.052 12.336 7439.925 7439.925 0 0 1-29.353 59.527 1260.176 1260.176 0 0 1-31.102 58.423c-.256.368-.882 1.507-1.88 3.412a109.945 109.945 0 0 1-3.34 5.879c-1.228 2.014-2.428 3.766-3.602 5.264-1.175 1.493-2.125 2.107-2.854 1.842-.566-.287-.642-1.392-.233-3.32.411-1.932.985-4.049 1.73-6.354a508.24 508.24 0 0 1 2.098-6.392c.652-1.957 1.105-3.118 1.361-3.486 4.632-12.316 9.5-24.528 14.598-36.636a4186.77 4186.77 0 0 1 15.445-36.21c4.46-10.067 8.923-20.135 13.386-30.207a1462.845 1462.845 0 0 1 13.688-29.982c-9.549 2.2-19.032 4.522-28.443 6.961a361.938 361.938 0 0 1-28.854 6.232c-3.688.731-7.425 1.42-11.209 2.072-3.787.654-7.652.76-11.597.313-.366-.131-.894-.248-1.583-.349-.692-.096-.865-.509-.523-1.231.466-.905 1.421-1.692 2.865-2.358a66.42 66.42 0 0 1 4.013-1.705 248.492 248.492 0 0 1 23.734-8.398c8.004-2.38 16.07-4.851 24.201-7.417a1240.828 1240.828 0 0 1 17.017-4.738 1169.697 1169.697 0 0 0 17.016-4.737 3303.56 3303.56 0 0 0 5.684-12.297c1.863-4.053 3.755-8.149 5.683-12.297a6954.748 6954.748 0 0 1 11.98-24.659 3438.143 3438.143 0 0 1 12.036-24.407 1421.903 1421.903 0 0 1 15.867-30.338 163.466 163.466 0 0 1 18.93-27.83c1.464-1.696 2.678-2.249 3.646-1.667.602.452.911 1.107.936 1.96.021.858-.014 1.46-.101 1.811a155.969 155.969 0 0 1-10.144 32.955c-4.597 10.6-9.27 21.032-14.022 31.303a954.946 954.946 0 0 1-13.565 29.968c-4.618 9.743-9.259 19.576-13.921 29.492a4637.027 4637.027 0 0 0 47.432-12.419l47.376-12.67a162.231 162.231 0 0 0 5.483-11.504 602.201 602.201 0 0 1 5.181-11.731c9.2-19.65 18.654-39.286 28.361-58.909 9.709-19.618 20.611-38.377 32.707-56.276.796-.939 1.799-2.073 3.011-3.401 1.212-1.325 2.345-1.873 3.4-1.642.965.586 1.253 1.886.862 3.897-.393 2.014-.72 3.547-.988 4.604z" opacity=".149"/>
</svg>
